<svg xmlns="http://www.w3.org/2000/svg" width="24" height="24" viewBox="0 0 24 24">
    <g fill="#E1E8ED" fill-rule="nonzero">
        <path d="M4.477 6.78h1.385C6.277 7.395 7 7.785 7.815 7.785A2.4 2.4 0 0 0 9.77 6.78h9.893c.723 0 1.307-.57 1.307-1.275s-.584-1.275-1.307-1.275H9.769c-.415-.615-1.138-1.005-1.954-1.005A2.4 2.4 0 0 0 5.862 4.23H4.477c-.723 0-1.308.57-1.308 1.275S3.754 6.78 4.477 6.78zM4.477 13.23h12.277c.415.615 1.138 1.005 1.954 1.005 1.292 0 2.338-1.02 2.338-2.28 0-1.26-1.046-2.28-2.338-2.28a2.4 2.4 0 0 0-1.954 1.005H4.477c-.723 0-1.308.57-1.308 1.275s.585 1.275 1.308 1.275zM19.646 17.1h-5.63c-.416-.615-1.14-1.005-1.954-1.005a2.4 2.4 0 0 0-1.954 1.005H4.477c-.723 0-1.308.57-1.308 1.275s.585 1.275 1.308 1.275h5.63c.416.615 1.14 1.005 1.955 1.005a2.4 2.4 0 0 0 1.953-1.005h5.631c.723 0 1.308-.57 1.308-1.275s-.585-1.275-1.308-1.275z"/>
    </g>
</svg>
