<svg xmlns="http://www.w3.org/2000/svg" width="320" height="220" viewBox="0 0 320 220">
    <g fill="none" fill-rule="evenodd">
        <path stroke="#4F4A5D" stroke-linecap="round" stroke-linejoin="round" stroke-width="1.583" d="M282.916 175.91c-4.948-8.555-14.197-14.311-24.791-14.311-10.593 0-19.842 5.756-24.79 14.31M225.204 155.58c-2.949-5.096-8.459-8.525-14.77-8.525-6.312 0-11.822 3.429-14.77 8.526"/>
        <path stroke="#4F4A5D" stroke-linecap="round" stroke-linejoin="round" stroke-width="1.583" d="M237.645 155.58a12.919 12.919 0 0 0-11.196-6.462 12.87 12.87 0 0 0-5.77 1.357M205.108 147.644a22 22 0 0 0-11.32-3.116c-8.182 0-15.325 4.446-19.147 11.053M298.885 175.91c-2.531-4.377-7.263-7.322-12.682-7.322-2.682 0-5.195.72-7.356 1.979M20.4 166.259c3.224-5.572 9.247-9.32 16.147-9.32 6.9 0 12.924 3.748 16.147 9.32"/>
        <path stroke="#4F4A5D" stroke-linecap="round" stroke-linejoin="round" stroke-width="1.583" d="M10 166.259a9.533 9.533 0 0 1 8.26-4.768c1.747 0 3.383.47 4.791 1.289M257.97 138.516c-2.809-4.855-8.057-8.121-14.07-8.121-6.012 0-11.26 3.266-14.069 8.121"/>
        <path stroke="#4F4A5D" stroke-linecap="round" stroke-linejoin="round" stroke-width="1.583" d="M267.032 138.516a8.306 8.306 0 0 0-7.197-4.154 8.27 8.27 0 0 0-4.175 1.123M220.656 189.056c-5.34-9.23-15.32-15.442-26.75-15.442-4.963 0-9.65 1.17-13.805 3.25M57.963 147.055c3.351-5.794 9.615-9.692 16.789-9.692 7.174 0 13.438 3.898 16.79 9.692"/>
        <path stroke="#4F4A5D" stroke-linecap="round" stroke-linejoin="round" stroke-width="1.583" d="M91.437 147.055a11.134 11.134 0 0 1 9.648-5.57c4.123 0 7.722 2.24 9.648 5.57M43.767 147.055c2.55-4.407 7.314-7.372 12.77-7.372 2.37 0 4.607.559 6.59 1.551M309.888 31l-54.007 44.212 5.608-16.587-12.551-9.32z"/>
        <path stroke="#4F4A5D" stroke-linecap="round" stroke-linejoin="round" stroke-width="1.583" d="M257.768 56.001l-9.336 6.758 13.057-4.134M309.888 31l-48.399 27.625M190.92 189.056c-7.02-12.136-20.142-20.302-35.171-20.302-15.03 0-28.15 8.166-35.172 20.302"/>
        <path stroke="#4F4A5D" stroke-linecap="round" stroke-linejoin="round" stroke-width="1.583" d="M123.684 184.133a23.257 23.257 0 0 0-16.406-6.743c-8.637 0-16.177 4.692-20.211 11.666"/>
        <path fill="#F6EA9F" d="M106.939 131.67c0 4.052-.654 7.051-2.572 10.307 0 0-1.733-1.398-6.977.232-2.056.638-5.849 4.846-5.849 4.846s-8.44-15.853-26.73-6.95c-1.373-2.863-1.684-5.048-1.684-8.435 0-12.098 9.808-21.906 21.906-21.906 12.098 0 21.906 9.808 21.906 21.906"/>
        <path fill="#73FFE9" d="M308.427 31.443l-59.49 17.862 12.552 9.32z"/>
        <path fill="#ECDDF8" d="M252.416 67.809s-80.974 57.145-104.025 101.611c-13.953 1.617-24.707 14.712-24.707 14.712s-7.99-7.723-20.17-6.742C151.94 113.016 252.415 67.809 252.415 67.809"/>
    </g>
</svg>