<svg xmlns="http://www.w3.org/2000/svg" xmlns:xlink="http://www.w3.org/1999/xlink" width="30px" height="30px" viewBox="0 0 30 30" version="1.1">
    <!-- Generator: sketchtool 52.1 (67048) - http://www.bohemiancoding.com/sketch -->
    <title>7EDE8B6B-F487-4F39-928A-00FBA2FDADC5</title>
    <desc>Created with sketchtool.</desc>
    <g id="Symbols" stroke="none" stroke-width="1" fill="none" fill-rule="evenodd">
        <g id="Icon/mobile/home" fill="#e1e8ed">
            <g id="Group-8">
                <path d="M18.537,22.89 L25.049,22.89 L25.092,16.84 C25.092,15.55 24.573,14.966 23.579,13.962 C23.5601185,13.9428113 23.5421007,13.9227915 23.525,13.902 C23.264,13.622 19.885,10.2 17.032,7.812 C16.5,7.365 15.76,7.11 15,7.11 C14.224,7.11 13.488,7.362 12.98,7.8 C10.01,10.31 6.466,13.914 6.435,13.947 L6.378,14.005 C5.462,14.953 4.908,15.524 4.908,16.84 L4.908,22.89 C4.914,22.88 4.928,22.89 4.993,22.89 L11.463,22.89 L11.463,17.776 C11.463,17.194 11.89,16.721 12.417,16.721 L17.583,16.721 C18.11,16.721 18.537,17.194 18.537,17.776 L18.537,22.89 Z M25.049,25 L17.583,25 C17.055,25 16.629,24.527 16.629,23.945 L16.629,18.83 L13.37,18.83 L13.37,23.944 C13.37,24.526 12.943,24.999 12.416,24.999 L4.993,24.999 C3.762,25 3,23.904 3,22.89 L3,16.84 C3,14.608 4.055,13.518 5.075,12.464 L5.125,12.412 C5.127,12.41 8.799,8.678 11.813,6.132 C12.653,5.404 13.79,5 15,5 C16.185,5 17.315,5.4 18.184,6.129 C20.017,7.664 23.88,11.296 24.855,12.416 L24.866,12.404 C25.866,13.414 27,14.559 27,16.84 L27,22.89 C27,23.927 26.27,25 25.05,25 L25.049,25 Z" id="Shape"/>
            </g>
        </g>
    </g>
</svg>