<svg xmlns="http://www.w3.org/2000/svg" width="508" height="284" viewBox="0 0 508 284">
    <g fill="none" fill-rule="evenodd">
        <path fill="#F5E9F8"
              d="M330.803 223.829c13.16-12.522 29.134-60.178-6.606-96.938-35.741-36.76-80.007 83.93-99.375 99.95-19.369 16.021-26.51 55.21-3.123 57.02 23.385 1.81 68.213-21.122 109.104-60.032"/>
        <path fill="#FFE6C1"
              d="M192.62 211.25s-32.146 9.233-52.109 1.845c-23.183-8.579-41.464 2.144-67.458 14.366-25.994 12.223-60.467-6.227-70.375 8.428-12.886 19.06 21.56 42.38 85.593 34.155 0 0 37.775-34.692 57.93-43.33 7.557-3.238 19.42-5.667 26.99-8.133 12.615-4.109 19.429-7.332 19.429-7.332M495.352 34.815c-25.826 25.534-106.565 24.848-152.77 38.04-46.206 13.191-47.742 50.977-78.257 54.708-4.856.594 55.167-62.547 72.578-69.14 60.575-22.934 104.027-23.48 128.346-47.605 19.305-19.15 64.32-9.833 30.103 23.997"/>
        <path stroke="#4F4A5D" stroke-linecap="round" stroke-linejoin="round" stroke-width="1.7"
              d="M415 25.96c-29.411 18.72-68.13 27.711-77.572 32.442-9.443 4.732-20.14 12.855-31.953 25.574-14.408 15.516-26.65 21.382-28.755 25.942-3.956 8.568-6.56 10.89-11.865 17.592-2.066 2.61-7.606 9.725-3.193 15.188 4.414 5.463 11.942 20.032 14.28 20.292 2.335.26 10.643-11.187-.78-23.934 0 0 9.086-5.724 11.942-9.366 0 0 2.856 18.731 3.375 21.073.52 2.341 3.635 20.813 6.23 23.674 2.597 2.862 8.05 11.655 9.866 14.309 2.28 3.332 8.048-.78 7.788-5.203-.26-4.423-9.327-24.042-9.587-32.107"/>
        <path stroke="#4F4A5D" stroke-linecap="round" stroke-linejoin="round" stroke-width="1.7"
              d="M314 183.87s7.344 1.275 8.075-5.755c.476-4.58-2.836-9.098-4.038-12.034-1.114-2.722-.611-9.403.006-11.772.732-2.81 4.38-14.488 4.38-14.488s.694 17.104 2.257 19.458c1.563 2.355 10.158 13.604 13.805 13.604 3.647 0 6.512-9.418 1.042-15.173-5.47-5.755-2.882-12.613-2.344-15.174 0 0 12.044-10.456 16.78-13.105 6.763-3.782 10.384-12.34 12.037-27.47"/>
        <path stroke="#4F4A5D" stroke-linecap="round" stroke-linejoin="round" stroke-width="1.7"
              d="M435 95.96c-5.328 1.691-27.715 5.726-44.575 5.467-16.859-.259-35.274-.518-40.98 8.538-5.707 9.056-12.19 16.818-25.937 17.336-13.747.517-13.747 25.873-26.197 30.272-12.45 4.399-17.378-2.587-14.525-8.02 2.853-5.434 6.744-11.385 9.078-13.973 2.334-2.587 10.115-8.28 10.375-14.49.26-6.209 2.594-15.006 2.594-15.006"/>
        <path fill="#FEFEFE"
              d="M281.988 185.728c3.776 0 13.952 1.712 13.952 9.416 0 7.703-12.56 6.2-12.56 9.89 0 3.69-.23 27.05.862 27.393 1.721.54 11.698 1.39 11.698 3.273 0 2.198.012 4.63 0 5.502-.015 1.062.143 6.222 0 7.01-.165.906-9.093 1.44-10.214 2.552-1.122 1.113-5.896 2.217-6.406-.489-.705-3.737-1.07-43.484-1.144-45.374-.15-3.792-10.176-2.5-10.176-9.757 0-5.239 5.66-7.2 10.273-7.2 4.624 0 7.146-2.456 7.146-12.658 0-7.647-3.431-12.325-3.431-12.325s-2.739 2.984-2.525 11.187c.08 3.084-.635 11.58 2.525 11.58"/>
        <path stroke="#4F4A5D" stroke-linecap="round" stroke-linejoin="round" stroke-width="1.7"
              d="M281.988 185.728c3.776 0 13.952 1.712 13.952 9.416 0 7.703-12.56 6.2-12.56 9.89 0 3.69-.23 27.05.862 27.393 1.721.54 11.698 1.39 11.698 3.273 0 2.198.012 4.63 0 5.502-.015 1.062.143 6.222 0 7.01-.165.906-9.093 1.44-10.214 2.552-1.122 1.113-5.896 2.217-6.406-.489-.705-3.737-1.07-43.484-1.144-45.374-.15-3.792-10.176-2.5-10.176-9.757 0-5.239 5.66-7.2 10.273-7.2 4.624 0 7.146-2.456 7.146-12.658 0-7.647-3.431-12.325-3.431-12.325s-2.739 2.984-2.525 11.187c.08 3.084-.635 11.58 2.525 11.58zM77 276.96s8.482-3.334 17.976-11.173c27.137-22.408 42.608-37.872 60.341-41.788 17.22-3.804 37.028-12.433 37.028-12.433s8.716 9.074 11.454 11.832c2.738 2.757-1.244 24.487 9.955 26.157 2.114 0 1.832-24.56 2.114-27.114.282-2.556-7.328-14.48-7.328-14.48s12.12 6.104 13.81 6.246c1.692.142 14.376 17.177 17.9 18.313 3.522 1.135 7.75-.284 7.75-.284l-5.247-8.141"/>
        <path stroke="#4F4A5D" stroke-linecap="round" stroke-linejoin="round" stroke-width="1.7"
              d="M223 204.165s15.779 18.22 21.853 21.884c6.073 3.665 12.147 1.137 12.147 0 0-2.354-7.409-5.538-9.605-10.148-2.76-5.794-14.988-20.953-16.26-21.94"/>
        <path stroke="#4F4A5D" stroke-linecap="round" stroke-linejoin="round" stroke-width="1.7"
              d="M117.99 213.07s4.094 1.064 7.19 2.996c12.858 8.023 15.743 19.67 31.105 19.67 8.223 0 16.662-3.8 24.439-4.247 7.776-.447 24.438 5.027 31.044 7.375 6.607 2.35 14.501 1.118 14.279-5.587-.426-12.858-26.205-13.88-31.771-15.199-5.567-1.318-20.884-11.623-19.107-11.623 1.778 0 18.52-10.93 25.84-11.718 11.815-1.27 24.593-4.574 24.593-4.574s13.775 7.8 20.884 12.046c7.11 4.246 17.36-1.627 13.775-3.459-13.62-6.956-27.222-22.598-34.62-22.403-7.054.185-13.753 1.329-19.932 1.329-8.399 0-15.828-2.572-21.87-2.713-6.044-.142-32.548 8.58-42.9 8.938-10.352.358-67.347 20.674-74.939 21.715"/>
    </g>
</svg>
