<svg xmlns="http://www.w3.org/2000/svg" width="35" height="27" viewBox="0 0 35 27">
    <g fill="#533B86" fill-rule="nonzero">
        <path d="M31.843 9.448c-.06-.06-5.232-4.724-9.532-7.913C20.988.531 19.304 0 17.47 0c-1.774 0-3.488.531-4.811 1.506-4.27 3.218-9.442 7.883-9.502 7.942C1.684 10.777 0 12.312 0 15.353V23c0 1.506 1.263 3.1 3.308 3.1h10.824v-9.566h6.736v9.536h10.915c1.984 0 3.217-1.623 3.217-3.1v-7.617c0-3.041-1.684-4.576-3.157-5.905zm-15.576 5.314l.722-3.424h1.022l.722 3.424h-2.466zm16.899 8.208c0 .443-.33 1.329-1.413 1.329h-9.081v-8.65a.897.897 0 0 0-.902-.887h-1.203l-1.082-5.196h-1.143L17.95 4.34h-.932l-.391 5.226h-1.143l-1.082 5.196H13.2a.896.896 0 0 0-.902.886V24.3h-8.99c-1.053 0-1.474-.856-1.474-1.329v-7.617c0-2.273 1.203-3.336 2.586-4.606.06-.059 5.172-4.665 9.382-7.824.962-.738 2.285-1.152 3.698-1.152 1.383 0 2.706.414 3.698 1.152 4.21 3.13 9.352 7.765 9.382 7.824 1.383 1.24 2.586 2.333 2.586 4.606v7.617z"/>
        <path d="M15.256 18h1.034v1.091h-1.034V18zm1.74 0h1.034v1.091h-1.033V18zm-1.74 2.327h1.034v1.091h-1.034v-1.091zm1.74 0h1.034v1.091h-1.033v-1.091zm-1.74 2.355h1.034v1.091h-1.034v-1.091zm1.74 0h1.034v1.091h-1.033v-1.091zm-1.74 2.327h1.034V26.1h-1.034v-1.091zM18.71 18h1.034v1.091H18.71V18zm0 2.327h1.034v1.091H18.71v-1.091zm0 2.355h1.034v1.091H18.71v-1.091zm0 2.327h1.034V26.1H18.71v-1.091zm-1.713 0h1.033V26.1h-1.033v-1.091z"/>
    </g>
</svg>