
<svg xmlns="http://www.w3.org/2000/svg" width="157" height="28" viewBox="0 0 157 28">
    <g fill="#533B86" fill-rule="evenodd">
        <path d="M34.356 24.233c0 .467-.343 1.401-1.464 1.401h-9.407v-9.126a.937.937 0 0 0-.934-.934h-1.246l-1.121-5.482H19l-.405-5.514h-.965l-.405 5.514h-1.184l-1.121 5.482h-1.246a.937.937 0 0 0-.935.934v9.126H3.426a1.476 1.476 0 0 1-1.525-1.401v-8.036c0-2.399 1.245-3.52 2.677-4.859.063-.062 5.359-4.922 9.719-8.255.997-.779 2.367-1.214 3.832-1.214 1.432 0 2.802.435 3.83 1.214 4.36 3.303 9.688 8.193 9.718 8.255 1.433 1.309 2.679 2.46 2.679 4.859v8.036zm-17.505-8.66l.747-3.613h1.06l.747 3.614H16.85zm16.135-5.605c-.062-.064-5.42-4.985-9.874-8.348C21.742.56 19.997 0 18.096 0c-1.837 0-3.612.56-4.983 1.59-4.423 3.393-9.78 8.314-9.842 8.378C1.744 11.368 0 12.988 0 16.197v8.067c0 1.588 1.308 3.271 3.426 3.271H14.64V17.443h6.977v10.06h11.307c2.055 0 3.332-1.712 3.332-3.27v-8.036c0-3.208-1.744-4.828-3.27-6.229z"/>
        <path d="M15.543 19.903h1.183V18.72h-1.183zM17.536 19.903h1.184V18.72h-1.184zM15.543 22.427h1.183v-1.184h-1.183zM17.536 22.427h1.184v-1.184h-1.184zM15.543 24.982h1.183v-1.185h-1.183zM17.536 24.982h1.184v-1.185h-1.184zM15.543 27.503h1.183V26.32h-1.183zM19.499 19.903h1.184V18.72h-1.184zM19.499 22.427h1.184v-1.184h-1.184zM19.499 24.982h1.184v-1.185h-1.184zM19.499 27.503h1.184V26.32h-1.184zM17.536 27.503h1.184V26.32h-1.184zM65.069 1.757h-2.03a.502.502 0 0 0-.427.24l-8.349 13.587-8.296-13.586a.5.5 0 0 0-.428-.241h-2.21a.503.503 0 0 0-.428.763l9.754 15.961v8.333c0 .276.224.501.501.501h2.086a.501.501 0 0 0 .501-.501V18.48L65.496 2.52a.501.501 0 0 0-.427-.763M83.641 7.993h-2.03a.494.494 0 0 0-.494.492v9.635c0 2.078-.557 3.717-1.654 4.872-1.095 1.153-2.618 1.737-4.525 1.737-1.74 0-3.093-.493-4.022-1.468-.931-.976-1.404-2.44-1.404-4.353V8.485a.494.494 0 0 0-.493-.492h-2.03a.494.494 0 0 0-.493.492V19.16c0 2.708.742 4.796 2.204 6.21 1.459 1.41 3.474 2.126 5.988 2.126 1.537 0 2.926-.329 4.126-.979a7.232 7.232 0 0 0 2.41-2.089v2.396c0 .271.222.492.494.492h1.923c.272 0 .493-.22.493-.492V8.485a.494.494 0 0 0-.493-.492M99.089 7.852c-1.655.032-3.078.368-4.226.994a6.326 6.326 0 0 0-2.322 2.16V8.482a.49.49 0 0 0-.49-.489h-1.929a.49.49 0 0 0-.49.489v18.344c0 .27.22.489.49.489h2.037c.27 0 .49-.218.49-.489v-9.351c0-2.127.546-3.798 1.622-4.966 1.07-1.161 2.58-1.75 4.485-1.75h.61c.13 0 .235-.106.235-.238V8.353a.508.508 0 0 0-.512-.5M114.03 24.293a.493.493 0 0 0-.321-.263.519.519 0 0 0-.425.083c-.28.2-.602.364-.957.485-.464.159-.951.24-1.448.24-.98 0-1.737-.272-2.248-.807-.516-.537-.777-1.345-.777-2.4V10.617h5.226a.51.51 0 0 0 .509-.51V8.502a.509.509 0 0 0-.509-.508h-5.226V4.38a.507.507 0 0 0-.508-.507h-2a.507.507 0 0 0-.508.507v3.614h-2.86a.508.508 0 0 0-.508.508v1.606c0 .28.227.509.508.509h2.86v11.16c0 1.8.505 3.219 1.503 4.216.996.998 2.426 1.503 4.252 1.503.784 0 1.55-.118 2.277-.352a5.166 5.166 0 0 0 1.686-.888.51.51 0 0 0 .132-.62l-.658-1.342zM129.92 18.57v2.8c-.48 1.17-1.215 2.077-2.185 2.698-.983.629-2.181.948-3.564.948-1.445 0-2.578-.304-3.369-.902-.781-.591-1.16-1.38-1.16-2.41 0-2.108 1.504-3.133 4.601-3.133h5.677zm-4.853-10.72c-1.498 0-2.946.226-4.302.674-1.28.423-2.404 1.02-3.34 1.778a.5.5 0 0 0-.111.645l.876 1.452a.487.487 0 0 0 .728.124 8.582 8.582 0 0 1 2.537-1.402 9.93 9.93 0 0 1 3.362-.578c1.673 0 2.958.408 3.817 1.209.853.797 1.286 1.988 1.286 3.537v.91h-5.749c-2.577 0-4.49.514-5.688 1.525-1.209 1.023-1.822 2.385-1.822 4.052 0 1.715.656 3.115 1.951 4.161 1.279 1.033 3.017 1.558 5.166 1.558 1.56 0 2.927-.285 4.064-.848.892-.442 1.625-1.025 2.186-1.74v1.916c0 .27.221.492.493.492h1.924a.494.494 0 0 0 .493-.492V15.397c0-2.469-.69-4.367-2.047-5.638-1.353-1.267-3.312-1.91-5.824-1.91zM153.957 9.978c-1.437-1.412-3.392-2.128-5.81-2.128-1.605 0-3.051.308-4.297.92a7.24 7.24 0 0 0-2.527 2.014V.738a.486.486 0 0 0-.486-.487h-2.044a.487.487 0 0 0-.487.487v26.091c0 .268.218.486.487.486h2.044a.486.486 0 0 0 .486-.486v-9.641c0-2.053.574-3.68 1.706-4.834 1.132-1.154 2.697-1.738 4.652-1.738 1.74 0 3.094.493 4.022 1.466.933.979 1.405 2.432 1.405 4.318v10.43c0 .267.218.485.486.485h2.043a.487.487 0 0 0 .488-.486V16.15c0-2.682-.73-4.758-2.168-6.171"/>
    </g>
</svg>
