<svg xmlns="http://www.w3.org/2000/svg" width="373" height="361" viewBox="0 0 373 361">
    <g fill="none" fill-rule="evenodd">
        <path fill="#AFFFF3" d="M219.598 123.245c17.507 30.324-1.226 73.915-41.843 97.365-40.615 23.45-87.734 17.877-105.24-12.447-17.508-30.323 1.225-73.915 41.84-97.364 40.616-23.45 87.735-17.878 105.243 12.446"/>
        <path fill="#73FFE9" d="M372.095 42.272c2.205 3.82-.155 9.313-5.272 12.267-5.117 2.955-11.053 2.253-13.26-1.568-2.206-3.82.156-9.312 5.272-12.267 5.118-2.954 11.054-2.252 13.26 1.568"/>
        <path fill="#FFF4AF" d="M183.632 6.591c1.253 2.17-.873 5.742-4.749 7.979-3.875 2.237-8.032 2.293-9.284.123-1.253-2.169.873-5.741 4.749-7.978 3.875-2.238 8.032-2.293 9.284-.124"/>
        <path fill="#AFF2FF" d="M131.974 322.889c4.357 7.546-2.28 19.535-14.824 26.777-12.543 7.243-26.244 6.996-30.601-.551-4.358-7.546 2.28-19.535 14.823-26.778 12.544-7.241 26.244-6.995 30.602.552M107.511 46.667C134.504 33.03 176.17 25.014 209.437 25.48c36.024.505 44.598 9.915 31.595 22.618-7.714 7.537-42.913-4.977-84.752 6.943-46.29 13.187-73.81 34.194-91.217 51.082-22.13 21.47-30.139 9.596-23.467-2.466 9.065-16.389 24.033-35.833 65.915-56.99"/>
        <path fill="#FFF6BD" d="M231.758 264.136c-19.736 9.97-50.202 15.833-74.527 15.492-26.34-.369-32.608-7.25-23.101-16.538 5.64-5.511 31.377 3.64 61.97-5.076 33.845-9.643 53.968-25.003 66.696-37.35 16.18-15.7 22.037-7.017 17.158 1.802-6.627 11.983-17.572 26.2-48.196 41.67"/>
        <path fill="#FFF" d="M199.462 167.67c-2.42 12.612-17.353 23.379-33.353 24.047-16 .67-27.009-9.013-24.589-21.626 2.42-12.612 17.353-23.379 33.353-24.048 16-.668 27.01 9.014 24.589 21.626"/>
        <path stroke="#4F4A5D" stroke-linecap="round" stroke-linejoin="round" stroke-width="1.7" d="M199.462 167.67c-2.42 12.612-17.353 23.379-33.353 24.047-16 .67-27.009-9.013-24.589-21.626 2.42-12.612 17.353-23.379 33.353-24.048 16-.668 27.01 9.014 24.589 21.626z"/>
        <path stroke="#4F4A5D" stroke-linecap="round" stroke-linejoin="round" stroke-width="1.7" d="M203.44 146.934l-6.473 33.737c-.987 5.142 3.502 9.09 10.026 8.818 12.022-.502 18.067-15.5 19.496-22.95 4.566-23.792-16.201-42.057-46.384-40.796-30.183 1.262-58.353 21.572-62.919 45.366-4.565 23.792 16.201 42.058 46.385 40.796 9.893-.413 19.695-3.707 31.27-9.431 4.704-2.326 8.848-3.462 12.131-3.515 5.727-.093 8.83 3.106 7.696 9.02-2.306 12.017-33.431 22.997-56.276 23.952l.036-.002c-44.04 1.841-74.34-24.81-67.678-59.525 6.662-34.715 47.763-64.35 91.802-66.191 44.04-1.84 74.341 24.81 67.679 59.525"/>
        <path stroke="#4F4A5D" stroke-linecap="round" stroke-linejoin="round" stroke-width="1.7" d="M187.11 82.465c60.677-2.536 102.425 34.183 93.247 82.014-9.179 47.831-65.808 88.662-126.486 91.198-60.677 2.537-102.426-34.183-93.247-82.014 2.996-15.616 11.051-30.486 22.653-43.521"/>
        <path stroke="#4F4A5D" stroke-linecap="round" stroke-linejoin="round" stroke-width="1.7" d="M310.558 163.217c-11.702 60.98-83.898 113.034-161.256 116.267-77.356 3.233-130.581-43.579-118.88-104.559C42.125 113.946 114.32 61.891 191.679 58.658c25.256-1.055 47.94 3.223 66.63 11.588"/>
        <path stroke="#4F4A5D" stroke-linecap="round" stroke-linejoin="round" stroke-width="1.7" d="M33.27 268.01C-22.6 218.87-6.457 134.737 69.328 80.096c75.785-54.643 182.512-59.103 238.382-9.964 55.87 49.14 39.726 133.27-36.06 187.913-24.742 17.84-52.783 30.33-81.276 37.354"/>
    </g>
</svg>