<svg xmlns="http://www.w3.org/2000/svg" width="24" height="24" viewBox="0 0 24 24">
    <g fill="none" fill-rule="evenodd">
        <path fill="#F8F9FC" d="M-725-1276H715V183H-725z"/>
        <g fill="#523A84" fill-rule="nonzero">
            <path d="M4 5.223c0 .317.136.635.426.865l6.555 5.555c.561.476 1.48.476 2.043 0l6.555-5.555c.561-.476.561-1.255 0-1.73-.562-.477-1.482-.477-2.043 0l-5.534 4.688L6.47 4.357c-.562-.476-1.482-.476-2.043 0-.29.245-.426.548-.426.866z"/>
            <path d="M4 13.223c0 .317.136.635.426.865l6.555 5.555c.561.476 1.48.476 2.043 0l6.555-5.555c.561-.476.561-1.255 0-1.73-.562-.477-1.482-.477-2.043 0l-5.534 4.688-5.533-4.689c-.562-.476-1.482-.476-2.043 0-.29.245-.426.548-.426.866z"/>
        </g>
    </g>
</svg>
